<svg width="212" height="45" viewBox="0 0 212 45" fill="none" xmlns="http://www.w3.org/2000/svg">
<path d="M55.2466 22.716H68.2426V25.812H55.2466V22.716ZM55.6066 36H52.0066V10.8H69.7906V13.932H55.6066V36ZM74.3541 36V16.92H77.8101V36H74.3541ZM76.0821 13.248C75.4101 13.248 74.8461 13.032 74.3901 12.6C73.9581 12.168 73.7421 11.64 73.7421 11.016C73.7421 10.368 73.9581 9.828 74.3901 9.396C74.8461 8.964 75.4101 8.748 76.0821 8.748C76.7541 8.748 77.3061 8.964 77.7381 9.396C78.1941 9.804 78.4221 10.32 78.4221 10.944C78.4221 11.592 78.2061 12.144 77.7741 12.6C77.3421 13.032 76.7781 13.248 76.0821 13.248ZM94.5968 16.74C96.1568 16.74 97.5248 17.04 98.7008 17.64C99.9008 18.24 100.837 19.152 101.509 20.376C102.181 21.6 102.517 23.148 102.517 25.02V36H99.0608V25.416C99.0608 23.568 98.6048 22.176 97.6928 21.24C96.8048 20.304 95.5448 19.836 93.9128 19.836C92.6888 19.836 91.6208 20.076 90.7088 20.556C89.7968 21.036 89.0888 21.744 88.5848 22.68C88.1048 23.616 87.8648 24.78 87.8648 26.172V36H84.4088V16.92H87.7208V22.068L87.1808 20.7C87.8048 19.452 88.7648 18.48 90.0608 17.784C91.3568 17.088 92.8688 16.74 94.5968 16.74ZM120.757 36V31.968L120.577 31.212V24.336C120.577 22.872 120.145 21.744 119.281 20.952C118.441 20.136 117.169 19.728 115.465 19.728C114.337 19.728 113.233 19.92 112.153 20.304C111.073 20.664 110.161 21.156 109.417 21.78L107.977 19.188C108.961 18.396 110.137 17.796 111.505 17.388C112.897 16.956 114.349 16.74 115.861 16.74C118.477 16.74 120.493 17.376 121.909 18.648C123.325 19.92 124.033 21.864 124.033 24.48V36H120.757ZM114.493 36.216C113.077 36.216 111.829 35.976 110.749 35.496C109.693 35.016 108.877 34.356 108.301 33.516C107.725 32.652 107.437 31.68 107.437 30.6C107.437 29.568 107.677 28.632 108.157 27.792C108.661 26.952 109.465 26.28 110.569 25.776C111.697 25.272 113.209 25.02 115.105 25.02H121.153V27.504H115.249C113.521 27.504 112.357 27.792 111.757 28.368C111.157 28.944 110.857 29.64 110.857 30.456C110.857 31.392 111.229 32.148 111.973 32.724C112.717 33.276 113.749 33.552 115.069 33.552C116.365 33.552 117.493 33.264 118.453 32.688C119.437 32.112 120.145 31.272 120.577 30.168L121.261 32.544C120.805 33.672 120.001 34.572 118.849 35.244C117.697 35.892 116.245 36.216 114.493 36.216ZM140.616 16.74C142.176 16.74 143.544 17.04 144.72 17.64C145.92 18.24 146.856 19.152 147.528 20.376C148.2 21.6 148.536 23.148 148.536 25.02V36H145.08V25.416C145.08 23.568 144.624 22.176 143.712 21.24C142.824 20.304 141.564 19.836 139.932 19.836C138.708 19.836 137.64 20.076 136.728 20.556C135.816 21.036 135.108 21.744 134.604 22.68C134.124 23.616 133.884 24.78 133.884 26.172V36H130.428V16.92H133.74V22.068L133.2 20.7C133.824 19.452 134.784 18.48 136.08 17.784C137.376 17.088 138.888 16.74 140.616 16.74ZM163.248 36.216C161.304 36.216 159.564 35.796 158.028 34.956C156.516 34.116 155.328 32.964 154.464 31.5C153.6 30.036 153.168 28.356 153.168 26.46C153.168 24.564 153.6 22.884 154.464 21.42C155.328 19.956 156.516 18.816 158.028 18C159.564 17.16 161.304 16.74 163.248 16.74C164.976 16.74 166.512 17.088 167.856 17.784C169.224 18.456 170.28 19.464 171.024 20.808L168.396 22.5C167.772 21.564 167.004 20.88 166.092 20.448C165.204 19.992 164.244 19.764 163.212 19.764C161.964 19.764 160.848 20.04 159.864 20.592C158.88 21.144 158.1 21.924 157.524 22.932C156.948 23.916 156.66 25.092 156.66 26.46C156.66 27.828 156.948 29.016 157.524 30.024C158.1 31.032 158.88 31.812 159.864 32.364C160.848 32.916 161.964 33.192 163.212 33.192C164.244 33.192 165.204 32.976 166.092 32.544C167.004 32.088 167.772 31.392 168.396 30.456L171.024 32.112C170.28 33.432 169.224 34.452 167.856 35.172C166.512 35.868 164.976 36.216 163.248 36.216ZM161.556 44.064C160.932 44.064 160.356 43.992 159.828 43.848C159.3 43.728 158.808 43.536 158.352 43.272L159.108 41.508C159.492 41.724 159.876 41.88 160.26 41.976C160.668 42.072 161.1 42.12 161.556 42.12C162.252 42.12 162.756 41.988 163.068 41.724C163.404 41.484 163.572 41.136 163.572 40.68C163.572 40.248 163.404 39.9 163.068 39.636C162.756 39.396 162.24 39.276 161.52 39.276H160.548L161.448 35.748H163.428L162.888 37.8C163.92 37.896 164.7 38.22 165.228 38.772C165.756 39.324 166.02 39.996 166.02 40.788C166.02 41.796 165.612 42.588 164.796 43.164C163.98 43.764 162.9 44.064 161.556 44.064ZM187.343 36V31.968L187.163 31.212V24.336C187.163 22.872 186.731 21.744 185.867 20.952C185.027 20.136 183.755 19.728 182.051 19.728C180.923 19.728 179.819 19.92 178.739 20.304C177.659 20.664 176.747 21.156 176.003 21.78L174.563 19.188C175.547 18.396 176.723 17.796 178.091 17.388C179.483 16.956 180.935 16.74 182.447 16.74C185.063 16.74 187.079 17.376 188.495 18.648C189.911 19.92 190.619 21.864 190.619 24.48V36H187.343ZM181.079 36.216C179.663 36.216 178.415 35.976 177.335 35.496C176.279 35.016 175.463 34.356 174.887 33.516C174.311 32.652 174.023 31.68 174.023 30.6C174.023 29.568 174.263 28.632 174.743 27.792C175.247 26.952 176.051 26.28 177.155 25.776C178.283 25.272 179.795 25.02 181.691 25.02H187.739V27.504H181.835C180.107 27.504 178.943 27.792 178.343 28.368C177.743 28.944 177.443 29.64 177.443 30.456C177.443 31.392 177.815 32.148 178.559 32.724C179.303 33.276 180.335 33.552 181.655 33.552C182.951 33.552 184.079 33.264 185.039 32.688C186.023 32.112 186.731 31.272 187.163 30.168L187.847 32.544C187.391 33.672 186.587 34.572 185.435 35.244C184.283 35.892 182.831 36.216 181.079 36.216ZM202.486 36.216C200.902 36.216 199.39 36 197.95 35.568C196.534 35.136 195.418 34.608 194.602 33.984L196.042 31.248C196.858 31.8 197.866 32.268 199.066 32.652C200.266 33.036 201.49 33.228 202.738 33.228C204.346 33.228 205.498 33 206.194 32.544C206.914 32.088 207.274 31.452 207.274 30.636C207.274 30.036 207.058 29.568 206.626 29.232C206.194 28.896 205.618 28.644 204.898 28.476C204.202 28.308 203.422 28.164 202.558 28.044C201.694 27.9 200.83 27.732 199.966 27.54C199.102 27.324 198.31 27.036 197.59 26.676C196.87 26.292 196.294 25.776 195.862 25.128C195.43 24.456 195.214 23.568 195.214 22.464C195.214 21.312 195.538 20.304 196.186 19.44C196.834 18.576 197.746 17.916 198.922 17.46C200.122 16.98 201.538 16.74 203.17 16.74C204.418 16.74 205.678 16.896 206.95 17.208C208.246 17.496 209.302 17.916 210.118 18.468L208.642 21.204C207.778 20.628 206.878 20.232 205.942 20.016C205.006 19.8 204.07 19.692 203.134 19.692C201.622 19.692 200.494 19.944 199.75 20.448C199.006 20.928 198.634 21.552 198.634 22.32C198.634 22.968 198.85 23.472 199.282 23.832C199.738 24.168 200.314 24.432 201.01 24.624C201.73 24.816 202.522 24.984 203.386 25.128C204.25 25.248 205.114 25.416 205.978 25.632C206.842 25.824 207.622 26.1 208.318 26.46C209.038 26.82 209.614 27.324 210.046 27.972C210.502 28.62 210.73 29.484 210.73 30.564C210.73 31.716 210.394 32.712 209.722 33.552C209.05 34.392 208.102 35.052 206.878 35.532C205.654 35.988 204.19 36.216 202.486 36.216Z" fill="black"/>
<path d="M26.937 43.1621C24.4865 45.6126 20.5136 45.6126 18.0631 43.1621L1.83784 26.937C-0.612614 24.4865 -0.612614 20.5136 1.83784 18.0631L18.0631 1.83784C20.5136 -0.612614 24.4865 -0.612614 26.937 1.83784L43.1621 18.0631C45.6126 20.5136 45.6126 24.4865 43.1621 26.937L26.937 43.1621Z" fill="black"/>
<path d="M20.7681 34.7225C18.9601 34.5954 17.4911 34.3538 16.361 33.9979C15.2562 33.6165 14.4275 33.2733 13.875 32.9682L15.1557 29.3453C15.9593 29.7521 16.9261 30.1208 18.0561 30.4513C19.2112 30.7818 20.517 30.947 21.9735 30.947C23.7062 30.947 24.899 30.6928 25.5519 30.1843C26.2299 29.6504 26.5689 28.9513 26.5689 28.0869C26.5689 27.5021 26.4308 26.9936 26.1546 26.5614C25.8784 26.1293 25.4891 25.7479 24.9869 25.4174C24.4847 25.0869 23.882 24.7818 23.1789 24.5021C22.5008 24.2225 21.7475 23.9301 20.9188 23.625C20.1404 23.3454 19.3619 23.0275 18.5834 22.6716C17.8301 22.3157 17.1395 21.8835 16.5117 21.375C15.909 20.8411 15.4194 20.2055 15.0427 19.4682C14.666 18.7309 14.4777 17.8284 14.4777 16.7606C14.4777 15.0064 14.9925 13.5191 16.022 12.2987C17.0516 11.053 18.6337 10.2521 20.7681 9.89619V5.625H24.6855V9.74364C25.8909 9.84535 26.9707 10.0233 27.9249 10.2775C28.8792 10.5064 29.6326 10.7352 30.185 10.964L29.2433 14.7394C28.5151 14.4598 27.6487 14.1928 26.6443 13.9386C25.6649 13.6843 24.5349 13.5572 23.2542 13.5572C21.8982 13.5572 20.8811 13.8115 20.2031 14.3199C19.5251 14.803 19.1861 15.4767 19.1861 16.3411C19.1861 16.8496 19.2866 17.2818 19.4874 17.6377C19.6884 17.9682 19.9897 18.2733 20.3915 18.553C20.7933 18.8072 21.2829 19.0614 21.8605 19.3157C22.4381 19.5445 23.091 19.786 23.8192 20.0403C24.8488 20.447 25.8156 20.8792 26.7196 21.3369C27.6487 21.7691 28.4523 22.2903 29.1303 22.9004C29.8083 23.4852 30.3357 24.1843 30.7123 24.9979C31.1141 25.8114 31.315 26.7776 31.315 27.8962C31.315 29.5742 30.8002 31.0233 29.7706 32.2436C28.7411 33.464 27.046 34.2521 24.6855 34.6081V39.375H20.7681V34.7225Z" fill="white"/>
</svg>
