<svg width="141" height="24" viewBox="0 0 141 24" fill="none" xmlns="http://www.w3.org/2000/svg">
<path d="M0.45375 23V0.599998H9.18975C11.1524 0.599998 12.8271 0.909332 14.2138 1.528C15.6004 2.14667 16.6671 3.04267 17.4138 4.216C18.1604 5.38933 18.5338 6.78667 18.5338 8.408C18.5338 10.0293 18.1604 11.4267 17.4138 12.6C16.6671 13.752 15.6004 14.648 14.2138 15.288C12.8271 15.9067 11.1524 16.216 9.18975 16.216H2.21375L3.65375 14.712V23H0.45375ZM3.65375 15.032L2.21375 13.432H9.09375C11.1418 13.432 12.6884 12.9947 13.7338 12.12C14.8004 11.2453 15.3338 10.008 15.3338 8.408C15.3338 6.808 14.8004 5.57067 13.7338 4.696C12.6884 3.82133 11.1418 3.384 9.09375 3.384H2.21375L3.65375 1.784V15.032ZM30.2765 23.192C28.4632 23.192 26.8632 22.8187 25.4765 22.072C24.1112 21.3253 23.0445 20.3013 22.2765 19C21.5298 17.6987 21.1565 16.2053 21.1565 14.52C21.1565 12.8347 21.5192 11.3413 22.2445 10.04C22.9912 8.73867 24.0045 7.72533 25.2845 7C26.5858 6.25333 28.0472 5.88 29.6685 5.88C31.3112 5.88 32.7618 6.24267 34.0205 6.968C35.2792 7.69333 36.2605 8.71733 36.9645 10.04C37.6898 11.3413 38.0525 12.8667 38.0525 14.616C38.0525 14.744 38.0418 14.8933 38.0205 15.064C38.0205 15.2347 38.0098 15.3947 37.9885 15.544H23.5565V13.336H36.3885L35.1405 14.104C35.1618 13.016 34.9378 12.0453 34.4685 11.192C33.9992 10.3387 33.3485 9.67733 32.5165 9.208C31.7058 8.71733 30.7565 8.472 29.6685 8.472C28.6018 8.472 27.6525 8.71733 26.8205 9.208C25.9885 9.67733 25.3378 10.3493 24.8685 11.224C24.3992 12.0773 24.1645 13.0587 24.1645 14.168V14.68C24.1645 15.8107 24.4205 16.824 24.9325 17.72C25.4658 18.5947 26.2018 19.2773 27.1405 19.768C28.0792 20.2587 29.1565 20.504 30.3725 20.504C31.3752 20.504 32.2818 20.3333 33.0925 19.992C33.9245 19.6507 34.6498 19.1387 35.2685 18.456L36.9645 20.44C36.1965 21.336 35.2365 22.0187 34.0845 22.488C32.9538 22.9573 31.6845 23.192 30.2765 23.192ZM48.1423 23.192C46.4356 23.192 45.1129 22.7333 44.1743 21.816C43.2356 20.8987 42.7663 19.5867 42.7663 17.88V2.328H45.8383V17.752C45.8383 18.6693 46.0623 19.3733 46.5103 19.864C46.9796 20.3547 47.6409 20.6 48.4943 20.6C49.4543 20.6 50.2543 20.3333 50.8943 19.8L51.8543 22.008C51.3849 22.4133 50.8196 22.712 50.1583 22.904C49.5183 23.096 48.8463 23.192 48.1423 23.192ZM39.8863 8.568V6.04H50.7023V8.568H39.8863ZM62.5578 23.192C60.7444 23.192 59.1444 22.8187 57.7578 22.072C56.3924 21.3253 55.3258 20.3013 54.5578 19C53.8111 17.6987 53.4378 16.2053 53.4378 14.52C53.4378 12.8347 53.8004 11.3413 54.5258 10.04C55.2724 8.73867 56.2858 7.72533 57.5658 7C58.8671 6.25333 60.3284 5.88 61.9498 5.88C63.5924 5.88 65.0431 6.24267 66.3018 6.968C67.5604 7.69333 68.5418 8.71733 69.2458 10.04C69.9711 11.3413 70.3338 12.8667 70.3338 14.616C70.3338 14.744 70.3231 14.8933 70.3018 15.064C70.3018 15.2347 70.2911 15.3947 70.2698 15.544H55.8378V13.336H68.6698L67.4218 14.104C67.4431 13.016 67.2191 12.0453 66.7498 11.192C66.2804 10.3387 65.6298 9.67733 64.7978 9.208C63.9871 8.71733 63.0378 8.472 61.9498 8.472C60.8831 8.472 59.9338 8.71733 59.1018 9.208C58.2698 9.67733 57.6191 10.3493 57.1498 11.224C56.6804 12.0773 56.4458 13.0587 56.4458 14.168V14.68C56.4458 15.8107 56.7018 16.824 57.2138 17.72C57.7471 18.5947 58.4831 19.2773 59.4218 19.768C60.3604 20.2587 61.4378 20.504 62.6538 20.504C63.6564 20.504 64.5631 20.3333 65.3738 19.992C66.2058 19.6507 66.9311 19.1387 67.5498 18.456L69.2458 20.44C68.4778 21.336 67.5178 22.0187 66.3658 22.488C65.2351 22.9573 63.9658 23.192 62.5578 23.192ZM74.5995 23V6.04H77.5435V10.648L77.2555 9.496C77.7248 8.32267 78.5142 7.42667 79.6235 6.808C80.7328 6.18933 82.0982 5.88 83.7195 5.88V8.856C83.5915 8.83467 83.4635 8.824 83.3355 8.824C83.2288 8.824 83.1222 8.824 83.0155 8.824C81.3728 8.824 80.0715 9.31467 79.1115 10.296C78.1515 11.2773 77.6715 12.696 77.6715 14.552V23H74.5995ZM92.5573 23.192C91.1493 23.192 89.8053 23 88.5253 22.616C87.2666 22.232 86.2746 21.7627 85.5493 21.208L86.8293 18.776C87.5546 19.2667 88.4506 19.6827 89.5173 20.024C90.5839 20.3653 91.6719 20.536 92.7812 20.536C94.2106 20.536 95.2346 20.3333 95.8533 19.928C96.4933 19.5227 96.8133 18.9573 96.8133 18.232C96.8133 17.6987 96.6213 17.2827 96.2373 16.984C95.8533 16.6853 95.3413 16.4613 94.7013 16.312C94.0826 16.1627 93.3893 16.0347 92.6213 15.928C91.8533 15.8 91.0853 15.6507 90.3173 15.48C89.5493 15.288 88.8453 15.032 88.2053 14.712C87.5653 14.3707 87.0533 13.912 86.6693 13.336C86.2853 12.7387 86.0933 11.9493 86.0933 10.968C86.0933 9.944 86.3813 9.048 86.9573 8.28C87.5333 7.512 88.3439 6.92533 89.3893 6.52C90.4559 6.09333 91.7146 5.88 93.1653 5.88C94.2746 5.88 95.3946 6.01867 96.5253 6.296C97.6773 6.552 98.6159 6.92533 99.3413 7.416L98.0293 9.848C97.2613 9.336 96.4613 8.984 95.6293 8.792C94.7973 8.6 93.9653 8.504 93.1333 8.504C91.7893 8.504 90.7866 8.728 90.1253 9.176C89.4639 9.60267 89.1333 10.1573 89.1333 10.84C89.1333 11.416 89.3253 11.864 89.7093 12.184C90.1146 12.4827 90.6266 12.7173 91.2453 12.888C91.8853 13.0587 92.5893 13.208 93.3573 13.336C94.1253 13.4427 94.8933 13.592 95.6613 13.784C96.4293 13.9547 97.1226 14.2 97.7413 14.52C98.3813 14.84 98.8933 15.288 99.2773 15.864C99.6826 16.44 99.8853 17.208 99.8853 18.168C99.8853 19.192 99.5866 20.0773 98.9893 20.824C98.3919 21.5707 97.5493 22.1573 96.4613 22.584C95.3733 22.9893 94.0719 23.192 92.5573 23.192ZM110.989 23.192C109.282 23.192 107.767 22.8187 106.445 22.072C105.122 21.3253 104.077 20.3013 103.309 19C102.541 17.6773 102.157 16.184 102.157 14.52C102.157 12.8347 102.541 11.3413 103.309 10.04C104.077 8.73867 105.122 7.72533 106.445 7C107.767 6.25333 109.282 5.88 110.989 5.88C112.674 5.88 114.178 6.25333 115.501 7C116.845 7.72533 117.89 8.73867 118.637 10.04C119.405 11.32 119.789 12.8133 119.789 14.52C119.789 16.2053 119.405 17.6987 118.637 19C117.89 20.3013 116.845 21.3253 115.501 22.072C114.178 22.8187 112.674 23.192 110.989 23.192ZM110.989 20.504C112.077 20.504 113.047 20.2587 113.901 19.768C114.775 19.2773 115.458 18.584 115.949 17.688C116.439 16.7707 116.685 15.7147 116.685 14.52C116.685 13.304 116.439 12.2587 115.949 11.384C115.458 10.488 114.775 9.79467 113.901 9.304C113.047 8.81333 112.077 8.568 110.989 8.568C109.901 8.568 108.93 8.81333 108.077 9.304C107.223 9.79467 106.541 10.488 106.029 11.384C105.517 12.2587 105.261 13.304 105.261 14.52C105.261 15.7147 105.517 16.7707 106.029 17.688C106.541 18.584 107.223 19.2773 108.077 19.768C108.93 20.2587 109.901 20.504 110.989 20.504ZM133.093 5.88C134.48 5.88 135.696 6.14667 136.741 6.68C137.808 7.21333 138.64 8.024 139.237 9.112C139.834 10.2 140.133 11.576 140.133 13.24V23H137.061V13.592C137.061 11.9493 136.656 10.712 135.845 9.88C135.056 9.048 133.936 8.632 132.485 8.632C131.397 8.632 130.448 8.84533 129.637 9.272C128.826 9.69867 128.197 10.328 127.749 11.16C127.322 11.992 127.109 13.0267 127.109 14.264V23H124.037V6.04H126.981V10.616L126.501 9.4C127.056 8.29067 127.909 7.42667 129.061 6.808C130.213 6.18933 131.557 5.88 133.093 5.88Z" fill="black"/>
</svg>
